<?xml version="1.0" standalone="no"?>
<!DOCTYPE svg PUBLIC "-//W3C//DTD SVG 20010904//EN"
 "http://www.w3.org/TR/2001/REC-SVG-20010904/DTD/svg10.dtd">
<svg version="1.0" xmlns="http://www.w3.org/2000/svg"
 width="200.000000pt" height="200.000000pt" viewBox="0 0 200.000000 200.000000"
 preserveAspectRatio="xMidYMid meet">

<g transform="translate(0.000000,200.000000) scale(0.100000,-0.100000)"
fill="#1f57ff" stroke="none">
<path d="M881 1989 c-251 -29 -499 -166 -656 -362 -82 -103 -157 -252 -191
-382 -23 -86 -27 -120 -27 -245 0 -125 4 -159 27 -245 35 -132 109 -281 191
-382 129 -161 322 -284 530 -339 86 -23 120 -27 245 -27 125 0 159 4 245 27
357 94 627 364 721 721 23 86 27 120 27 245 0 125 -4 159 -27 245 -107 408
-442 697 -861 745 -101 11 -119 11 -224 -1z m255 -180 c203 -35 377 -138 504
-296 34 -42 74 -101 88 -130 18 -37 34 -55 54 -62 25 -9 48 -43 48 -72 0 -19
-49 -59 -73 -59 -33 0 -68 40 -66 76 4 58 -99 217 -194 298 -49 41 -147 106
-161 106 -3 0 -6 -48 -6 -107 l0 -107 -65 -66 -64 -65 20 -32 21 -33 144 0
144 0 0 -80 0 -80 110 0 c83 0 109 3 107 13 -1 7 12 13 35 15 l36 3 7 -74 c9
-93 -7 -221 -40 -316 -89 -262 -279 -450 -545 -537 -78 -26 -97 -28 -240 -28
-148 0 -159 1 -250 32 -220 73 -396 228 -494 432 -22 47 -51 98 -64 114 -40
50 -12 106 54 106 51 0 80 -54 53 -99 -10 -14 -7 -29 14 -75 l26 -57 95 82 95
81 3 117 3 116 98 3 97 3 0 64 0 65 -65 0 -65 0 0 65 0 65 -150 0 -149 0 -22
-67 c-13 -43 -23 -108 -26 -175 -5 -97 -8 -107 -27 -112 -51 -14 -56 -9 -56
47 2 349 228 676 546 788 131 46 294 61 420 38z"/>
<path d="M915 1746 c-5 -3 -31 -7 -57 -11 l-48 -6 0 -120 0 -119 65 0 65 0 0
-65 0 -65 98 0 98 0 62 63 62 63 0 111 0 111 -67 17 c-63 16 -255 30 -278 21z"/>
<path d="M651 1664 c-92 -48 -191 -130 -247 -207 -78 -105 -84 -97 66 -97
l130 0 0 65 0 65 65 0 65 0 0 105 c0 58 -2 105 -4 105 -2 0 -36 -16 -75 -36z"/>
<path d="M670 1325 l0 -95 95 0 95 0 0 95 0 95 -95 0 -95 0 0 -95z"/>
<path d="M940 1225 l0 -65 -65 0 -64 0 -3 -97 -3 -98 -97 -3 -98 -3 0 -62 0
-63 60 -59 60 -59 0 57 0 57 170 0 170 0 0 -100 0 -100 63 0 63 0 67 68 67 68
0 82 0 82 -70 0 -70 0 0 136 c0 135 0 136 -30 180 l-31 44 -94 0 -95 0 0 -65z"/>
<path d="M1270 1095 l0 -95 95 0 95 0 0 95 0 95 -95 0 -95 0 0 -95z"/>
<path d="M1530 975 l0 -45 -65 0 -65 0 0 -86 c0 -77 -3 -89 -25 -116 -14 -16
-25 -33 -25 -38 0 -4 48 -50 107 -101 l106 -93 33 38 c84 97 154 287 154 418
l0 68 -110 0 -110 0 0 -45z"/>
<path d="M810 665 l0 -95 95 0 95 0 0 95 0 95 -95 0 -95 0 0 -95z"/>
<path d="M483 653 c-119 -101 -118 -90 -8 -198 209 -206 521 -270 794 -165 70
27 160 80 221 130 l25 21 -55 50 c-30 28 -79 71 -108 97 l-53 45 -37 -36 c-37
-36 -40 -37 -115 -37 l-77 0 0 -30 0 -30 -170 0 -170 0 0 53 c0 52 -1 54 -68
120 -37 37 -70 67 -72 67 -3 0 -51 -39 -107 -87z"/>
</g>
</svg>
