<?xml version="1.0" encoding="iso-8859-1"?>
<!-- Generator: Adobe Illustrator 19.0.0, SVG Export Plug-In . SVG Version: 6.00 Build 0)  -->
<svg version="1.1" id="Layer_1" xmlns="http://www.w3.org/2000/svg" xmlns:xlink="http://www.w3.org/1999/xlink" x="0px" y="0px"
	 viewBox="0 0 392.581 392.581" style="enable-background:new 0 0 392.581 392.581;" xml:space="preserve">
<g>
	<rect x="117.786" y="213.778" style="fill:#FFFFFF;" width="88.695" height="93.996"/>
	<path style="fill:#FFFFFF;" d="M185.729,143.895c-15.063-11.378-25.018-28.38-27.927-46.804H70.4
		c-2.844,18.489-12.8,35.362-27.927,46.804c-12.994,9.826-20.687,25.341-20.687,41.568v34.457h38.335
		c6.012,0,10.925,4.848,10.925,10.925c0,6.012-4.848,10.925-10.925,10.925H21.786v21.851h21.333c6.012,0,10.925,4.848,10.925,10.925
		c0,6.012-4.848,10.925-10.925,10.925H21.786v63.935c0,11.83,9.568,21.398,21.398,21.398h141.899
		c11.83,0,21.398-9.568,21.398-21.398v-19.717h-99.62c-6.012,0-10.925-4.848-10.925-10.925V202.852
		c0-6.012,4.848-10.925,10.925-10.925h99.62v-6.4C206.481,169.236,198.723,153.721,185.729,143.895z"/>
</g>
<path style="fill:#56ACE0;" d="M171.701,22.036H56.566c-6.012,0-10.925,4.848-10.925,10.925v42.343h136.921V32.961
	C182.562,27.014,177.713,22.036,171.701,22.036z"/>
<path style="fill:#FFC10D;" d="M43.572,348.953V185.592c0-9.438,4.461-18.554,12.024-24.178
	c14.481-10.925,25.277-25.729,31.418-42.408h54.109c6.206,16.614,17.002,31.418,31.418,42.408
	c7.564,5.689,12.024,14.739,12.024,24.178v163.362H43.572L43.572,348.953z"/>
<g>
	<path style="fill:#FFFFFF;" d="M322.198,329.883c-11.313,14.287-13.511,27.345-10.343,30.578
		c3.168,3.232,15.968,1.487,30.448-9.115L322.198,329.883z"/>
	<path style="fill:#FFFFFF;" d="M369.196,304.8c-3.232-3.297-16.549-1.422-31.354,9.826l20.299,21.721
		C369.972,321.673,372.428,308.097,369.196,304.8z"/>
</g>
<g>
	<path style="fill:#194F82;" d="M384.84,289.608c-15.127-15.58-45.576-8.792-70.853,15.709
		c-25.277,24.566-32.84,54.756-17.778,70.335c15.127,15.58,45.576,8.792,70.853-15.709
		C392.339,335.378,399.968,305.188,384.84,289.608z M311.855,360.525c-3.168-3.232-0.905-16.291,10.343-30.578l20.105,21.463
		C327.887,361.883,315.022,363.757,311.855,360.525z M337.778,314.626c14.869-11.184,28.186-13.123,31.354-9.826
		c3.232,3.297,0.84,16.873-11.055,31.547L337.778,314.626z"/>
	<path style="fill:#194F82;" d="M369.519,219.079c2.844-21.527-21.333-41.244-56.178-45.899
		c-34.909-4.655-63.354,8.145-66.198,29.608c-2.844,21.527,21.333,41.244,56.178,45.899
		C338.23,253.341,366.675,240.606,369.519,219.079z M320.776,197.681c18.036,4.719,27.733,13.964,27.216,18.554
		c-0.646,4.655-12.735,11.119-31.612,10.796L320.776,197.681z M294.788,223.992c-17.261-4.784-26.634-13.77-26.053-18.23
		c0.646-4.59,12.218-10.796,30.448-10.796L294.788,223.992z"/>
</g>
<g>
	<path style="fill:#FFFFFF;" d="M268.735,205.632c-0.646,4.461,8.792,13.446,26.053,18.23l4.396-29.026
		C280.954,194.836,269.317,201.172,268.735,205.632z"/>
	<path style="fill:#FFFFFF;" d="M347.927,216.234c0.646-4.59-9.18-13.834-27.216-18.554l-4.461,29.349
		C335.192,227.289,347.345,220.889,347.927,216.234z"/>
</g>
<g>
	<path style="fill:#194F82;" d="M71.499,30.246c-6.012,0-10.925,4.848-10.925,10.925v15.127c0,6.012,4.848,10.925,10.925,10.925
		s10.925-4.848,10.925-10.925V41.172C82.36,35.095,77.511,30.246,71.499,30.246z"/>
	<path style="fill:#194F82;" d="M114.101,30.246c-6.012,0-10.925,4.848-10.925,10.925v15.127c0,6.012,4.848,10.925,10.925,10.925
		c6.077,0,10.925-4.848,10.925-10.925V41.172C125.026,35.095,120.178,30.246,114.101,30.246z"/>
	<path style="fill:#194F82;" d="M156.768,30.246c-6.012,0-10.925,4.848-10.925,10.925v15.127c0,6.012,4.848,10.925,10.925,10.925
		c6.077,0,10.925-4.848,10.925-10.925V41.172C167.693,35.095,162.78,30.246,156.768,30.246z"/>
	<path style="fill:#194F82;" d="M198.917,126.505c-9.568-7.24-16.162-17.778-18.747-29.414h13.382
		c6.012,0,10.925-4.848,10.925-10.925V32.897c0-18.036-14.675-32.711-32.711-32.711h-115.2c-18.036,0-32.711,14.675-32.711,32.711
		v53.269c0,6.012,4.848,10.925,10.925,10.925h13.446c-2.651,11.572-9.18,22.174-18.877,29.414C10.99,140.404,0,162.448,0,185.462
		v163.749c0,23.79,19.394,43.184,43.184,43.184h141.899c23.79,0,43.184-19.394,43.184-43.184v-163.62
		C228.267,162.448,217.277,140.469,198.917,126.505z M45.64,75.37V32.961c0-6.012,4.848-10.925,10.925-10.925h115.2
		c6.012,0,10.925,4.848,10.925,10.925v42.343H45.64V75.37z M206.481,307.709h-88.695v-93.931h88.695V307.709z M206.481,192.056
		h-99.62c-6.012,0-10.925,4.848-10.925,10.925v115.782c0,6.012,4.848,10.925,10.925,10.925h99.62v19.717
		c0,11.83-9.568,21.398-21.398,21.398H43.184c-11.83,0-21.398-9.568-21.398-21.398v-63.935h21.333
		c6.012,0,10.925-4.848,10.925-10.925c0-6.012-4.848-10.925-10.925-10.925H21.786v-21.786h38.335
		c6.012,0,10.925-4.848,10.925-10.925c0-6.012-4.848-10.925-10.925-10.925H21.786v-34.457c0-16.226,7.758-31.806,20.687-41.568
		c15.063-11.378,25.018-28.38,27.927-46.804h87.531c2.844,18.489,12.8,35.362,27.927,46.804
		c12.994,9.826,20.687,25.341,20.687,41.568v6.465h-0.065V192.056z"/>
</g>
<rect x="117.786" y="213.778" style="fill:#56ACE0;" width="88.695" height="93.996"/>
<g>
</g>
<g>
</g>
<g>
</g>
<g>
</g>
<g>
</g>
<g>
</g>
<g>
</g>
<g>
</g>
<g>
</g>
<g>
</g>
<g>
</g>
<g>
</g>
<g>
</g>
<g>
</g>
<g>
</g>
</svg>
